:SAMPLES-PER-SECOND 30
:FULLY-SPECIFIED
:DEGREES
134
root  -2.76788 40.8623 1.16566 175.916 -59.3354 -176.007
RightUpLeg  -0.39124 1.74323 0.434266
RightLeg  -0.0343664 6.66758 -0.846443
RightFoot  1.35908 -0.53628 4.93554
RightToes  -3.13006e-008 1.75238e-005 3.56266e-009
Spine  1.32879 -13.2811 -17.7672
Spine1  6.94622 -16.8787 13.8809
HEad  -0.00877247 -11.7364 -16.6266
LeftShoulder1  2.18684 -8.88071 -10.3868
LeftArm  90.7571 -56.6427 -146.911
LeftForeArm  -24.645 -41.9427 -11.4534
LeftHand  -0.0959545 -0.263738 2.01813
RightShoulder  3.05329 6.45617 24.5444
RightArm  -16.3031 -3.52808 30.3619
RightForeArm  102.997 78.4908 113.517
RightHand  -0.862533 7.10697 -8.33927
LeftUpLeg  7.28949 3.63224 2.71659
LeftLeg  -2.12374 40.2096 -2.35004
LeftFoot  -2.79948 0.331849 -4.27817
LeftToes  4.76866e-008 1.46233e-008 1.30548e-009
135
root  -2.78855 40.8635 1.21405 175.957 -59.767 -176.064
RightUpLeg  -0.375014 1.75529 0.332094
RightLeg  0.0293115 6.32544 -0.967047
RightFoot  1.29613 -0.547745 5.10955
RightToes  -3.13006e-008 1.75238e-005 3.56266e-009
Spine  1.28387 -13.3028 -17.6143
Spine1  6.8384 -17.0302 14.5163
HEad  -0.410984 -4.26603 -18.496
LeftShoulder1  2.29846 -8.94489 -11.2843
LeftArm  87.9153 -57.5177 -143.177
LeftForeArm  -22.5471 -46.0427 -13.0153
LeftHand  -0.0650138 0.0266632 1.40919
RightShoulder  2.86309 6.05323 23.8221
RightArm  -16.6479 -5.38533 31.0369
RightForeArm  105.424 78.2271 116.241
RightHand  -0.861609 7.29742 -8.21493
LeftUpLeg  7.2375 3.47907 2.54778
LeftLeg  -2.13236 39.9856 -2.28597
LeftFoot  -2.8314 0.331593 -4.30306
LeftToes  4.76866e-008 1.46233e-008 1.30548e-009
136
root  -2.80621 40.8644 1.25581 176.128 -60.0238 -176.361
RightUpLeg  -0.367605 1.66106 0.134756
RightLeg  0.249864 6.25221 -1.06569
RightFoot  1.15814 -0.54958 5.14595
RightToes  -3.13006e-008 1.75238e-005 3.56266e-009
Spine  0.967129 -13.2187 -16.9129
Spine1  7.03064 -16.8138 13.9845
HEad  -0.727569 1.28576 -19.078
LeftShoulder1  2.25823 -8.69583 -11.3366
LeftArm  83.605 -58.2751 -138.789
LeftForeArm  -21.232 -50.5113 -15.0936
LeftHand  -0.0856049 -0.533507 1.74282
RightShoulder  2.83934 5.93724 23.9426
RightArm  -17.1394 -7.2054 30.7423
RightForeArm  107.162 77.7524 119.763
RightHand  -0.840346 7.25815 -8.04121
LeftUpLeg  7.35016 3.28407 2.26218
LeftLeg  -2.30434 39.9911 -2.35283
LeftFoot  -2.81009 0.327906 -4.27445
LeftToes  4.76866e-008 1.46233e-008 1.30548e-009
137
root  -2.8198 40.8646 1.29129 176.104 -60.2159 -176.467
RightUpLeg  -0.254206 1.57693 0.0183358
RightLeg  0.291643 6.21311 -1.11135
RightFoot  1.14929 -0.544288 5.07863
RightToes  -3.13006e-008 1.75238e-005 3.56266e-009
Spine  0.813552 -12.828 -15.9418
Spine1  6.95458 -16.2565 13.3718
HEad  -0.287368 5.05626 -19.3356
LeftShoulder1  2.25552 -8.50918 -11.6286
LeftArm  79.3758 -59.1097 -134.391
LeftForeArm  -19.4351 -54.3394 -17.2403
LeftHand  -0.0320965 -0.617126 0.703651
RightShoulder  2.73616 5.60361 23.9124
RightArm  -17.6301 -9.47134 29.9581
RightForeArm  110.275 77.0553 124.413
RightHand  -0.759559 7.17074 -7.35629
LeftUpLeg  7.46015 3.24112 2.15869
LeftLeg  -2.34507 39.8757 -2.41277
LeftFoot  -2.86285 0.320616 -4.18759
LeftToes  4.76866e-008 1.46233e-008 1.30548e-009
138
root  -2.83095 40.863 1.32826 175.905 -60.2943 -176.454
RightUpLeg  -0.105211 1.50384 -0.0512742
RightLeg  0.365459 6.3366 -1.12407
RightFoot  1.15041 -0.556247 5.28137
RightToes  -3.13006e-008 1.75238e-005 3.56266e-009
Spine  0.406935 -12.5467 -14.4364
Spine1  7.18114 -15.6587 11.9617
HEad  -0.165009 8.75089 -19.4679
LeftShoulder1  2.18428 -8.02151 -11.8251
LeftArm  74.7745 -60.3653 -129.359
LeftForeArm  -16.6303 -57.6625 -19.4509
LeftHand  -0.000962359 -1.01562 0.119832
RightShoulder  2.62724 5.29823 23.7034
RightArm  -17.6553 -11.5953 29.4792
RightForeArm  113.344 76.6447 127.106
RightHand  -0.859407 7.03265 -8.35508
LeftUpLeg  7.62894 3.27525 2.13425
LeftLeg  -2.29662 39.7926 -2.4252
LeftFoot  -2.99254 0.316063 -4.13918
LeftToes  4.76866e-008 1.46233e-008 1.30548e-009
139
root  -2.83977 40.8594 1.35586 175.995 -60.1525 -176.624
RightUpLeg  -0.193189 1.4801 -0.131355
RightLeg  0.61365 6.54843 -1.19436
RightFoot  1.07079 -0.56038 5.35961
RightToes  -3.13006e-008 1.75238e-005 3.56266e-009
Spine  0.314833 -12.0918 -13.2113
Spine1  6.53378 -14.9396 11.2234
HEad  -0.377282 10.8777 -20.5338
LeftShoulder1  2.27391 -7.91021 -12.8993
LeftArm  68.6433 -61.2934 -122.359
LeftForeArm  -14.6997 -60.5894 -21.8584
LeftHand  -0.0261612 -0.536253 0.575822
RightShoulder  2.45144 4.80426 23.353
RightArm  -17.3692 -13.7617 29.0502
RightForeArm  114.468 76.3716 128.551
RightHand  -0.908419 7.0771 -8.78257
LeftUpLeg  7.65313 3.31121 2.05247
LeftLeg  -2.18046 39.9513 -2.47668
LeftFoot  -3.13964 0.310748 -4.07264
LeftToes  4.76866e-008 1.46233e-008 1.30548e-009
140
root  -2.83393 40.8524 1.38202 176.259 -60.0064 -176.909
RightUpLeg  -0.419821 1.47265 -0.263861
RightLeg  0.953821 6.75907 -1.25314
RightFoot  0.91059 -0.566201 5.45617
RightToes  -3.13006e-008 1.75238e-005 3.56266e-009
Spine  0.244819 -11.8587 -12.4103
Spine1  6.34323 -14.5463 10.6134
HEad  -0.80307 12.5255 -20.9747
LeftShoulder1  2.2307 -7.58191 -13.1159
LeftArm  62.7117 -62.0672 -116.756
LeftForeArm  -12.5691 -62.3516 -23.4973
LeftHand  -0.0532911 -0.765263 1.06582
RightShoulder  2.41762 4.67847 23.3912
RightArm  -16.7255 -15.4678 28.1539
RightForeArm  114.895 76.2853 129.008
RightHand  -0.890538 6.98231 -8.67982
LeftUpLeg  7.51277 3.31809 1.90984
LeftLeg  -1.88945 40.114 -2.41331
LeftFoot  -3.27438 0.306018 -4.01344
LeftToes  4.76866e-008 1.46233e-008 1.30548e-009
141
root  -2.81719 40.8505 1.39641 176.402 -60.3825 -177.122
RightUpLeg  -0.380679 1.44125 -0.359434
RightLeg  1.01106 6.42392 -1.34149
RightFoot  0.78952 -0.561203 5.37174
RightToes  -3.13006e-008 1.75238e-005 3.56266e-009
Spine  0.44667 -11.8082 -11.897
Spine1  5.97683 -14.3717 10.1448
HEad  -1.44228 13.7926 -21.2182
LeftShoulder1  2.35645 -7.9179 -13.6739
LeftArm  59.076 -62.5473 -113.261
LeftForeArm  -11.6698 -62.334 -23.4231
LeftHand  -0.132425 -1.38292 2.43175
RightShoulder  2.33127 4.45044 23.1349
RightArm  -15.8063 -17.6126 27.6543
RightForeArm  114.704 76.3528 128.684
RightHand  -0.907999 7.27193 -8.6526
LeftUpLeg  7.41449 3.28764 1.81851
LeftLeg  -1.71668 39.7765 -2.36775
LeftFoot  -3.3298 0.292535 -3.81751
LeftToes  4.76866e-008 1.46233e-008 1.30548e-009
142
root  -2.78693 40.8557 1.39392 176.562 -61.3459 -177.184
RightUpLeg  -0.300593 1.26647 -0.49269
RightLeg  0.790809 5.60175 -1.2782
RightFoot  0.785623 -0.557521 5.28993
RightToes  -3.13006e-008 1.75238e-005 3.56266e-009
Spine  0.4135 -11.7631 -11.2738
Spine1  6.18535 -14.0757 8.89064
HEad  -2.58343 14.2876 -21.0793
LeftShoulder1  2.32061 -8.23551 -12.7777
LeftArm  61.945 -62.2742 -117.446
LeftForeArm  -14.129 -60.1685 -21.4351
LeftHand  -0.13648 -1.00173 2.49794
RightShoulder  2.27198 4.0612 23.9655
RightArm  -15.4 -20.04 26.9636
RightForeArm  113.874 76.3169 128.635
RightHand  -0.955197 7.06388 -9.22206
LeftUpLeg  7.11287 3.16174 1.78381
LeftLeg  -1.63073 38.9442 -2.25681
LeftFoot  -3.22372 0.283395 -3.68211
LeftToes  4.76866e-008 1.46233e-008 1.30548e-009
143
root  -2.73803 40.8708 1.37704 176.651 -63.0692 -176.97
RightUpLeg  -0.241466 1.14934 -0.517239
RightLeg  0.360608 3.93585 -1.19344
RightFoot  0.921605 -0.560815 5.27467
RightToes  -3.13006e-008 1.75238e-005 3.56266e-009
Spine  0.457602 -11.4349 -10.2989
Spine1  6.19998 -13.2986 6.87179
HEad  -3.11424 13.272 -19.9625
LeftShoulder1  2.19462 -9.30445 -9.78251
LeftArm  67.6444 -60.887 -125.428
LeftForeArm  -15.7699 -57.884 -19.5462
LeftHand  -0.0414963 0.13489 0.947523
RightShoulder  1.9461 2.70514 25.2718
RightArm  -15.7969 -23.2713 26.9282
RightForeArm  114.336 76.1208 129.537
RightHand  -0.885613 7.0577 -8.58448
LeftUpLeg  6.55823 3.14289 1.9994
LeftLeg  -1.61851 37.2098 -2.26568
LeftFoot  -3.09424 0.266097 -3.40581
LeftToes  4.76866e-008 1.46233e-008 1.30548e-009
